<svg width="64" height="64" viewBox="0 0 64 64" xmlns="http://www.w3.org/2000/svg">
  <!-- Racing flag background -->
  <rect width="64" height="64" fill="#ffffff" />
  <rect x="0" y="0" width="16" height="16" fill="#000000" />
  <rect x="32" y="0" width="16" height="16" fill="#000000" />
  <rect x="16" y="16" width="16" height="16" fill="#000000" />
  <rect x="48" y="16" width="16" height="16" fill="#000000" />
  <rect x="0" y="32" width="16" height="16" fill="#000000" />
  <rect x="32" y="32" width="16" height="16" fill="#000000" />
  <rect x="16" y="48" width="16" height="16" fill="#000000" />
  <rect x="48" y="48" width="16" height="16" fill="#000000" />
  
  <!-- Race car shape -->
  <path d="M 16,40 L 48,40 L 52,30 L 48,20 L 16,20 L 12,30 Z" fill="#ff6b6b" />
  
  <!-- Car windows -->
  <path d="M 24,28 L 40,28 L 38,22 L 26,22 Z" fill="#4CC9F0" />
  
  <!-- Wheels -->
  <circle cx="20" cy="42" r="6" fill="#333333" />
  <circle cx="44" cy="42" r="6" fill="#333333" />
  <circle cx="20" cy="42" r="3" fill="#888888" />
  <circle cx="44" cy="42" r="3" fill="#888888" />
</svg> 